<?xml version="1.0" encoding="utf-8"?>
<!-- Generator: Adobe Illustrator 25.0.1, SVG Export Plug-In . SVG Version: 6.00 Build 0)  -->
<svg version="1.0"
	 id="svg2" inkscape:version="1.1 (c68e22c387, 2021-05-23)" sodipodi:docname="svn-name-banner2.svg" sodipodi:version="0.32" xmlns:cc="http://creativecommons.org/ns#" xmlns:dc="http://purl.org/dc/elements/1.1/" xmlns:inkscape="http://www.inkscape.org/namespaces/inkscape" xmlns:rdf="http://www.w3.org/1999/02/22-rdf-syntax-ns#" xmlns:sodipodi="http://sodipodi.sourceforge.net/DTD/sodipodi-0.dtd" xmlns:svg="http://www.w3.org/2000/svg"
	 xmlns="http://www.w3.org/2000/svg" xmlns:xlink="http://www.w3.org/1999/xlink" x="0px" y="0px" width="108px" height="108px"
	 viewBox="0 0 108 108" enable-background="new 0 0 108 108" xml:space="preserve">
<sodipodi:namedview  bordercolor="#666666" borderopacity="1.0" id="base" inkscape:current-layer="Layer_1" inkscape:cx="76.309017" inkscape:cy="43.717075" inkscape:pagecheckerboard="0" inkscape:pageopacity="0.0" inkscape:pageshadow="2" inkscape:window-height="1057" inkscape:window-maximized="1" inkscape:window-width="1812" inkscape:window-x="100" inkscape:window-y="-8" inkscape:zoom="3.1909728" pagecolor="#ffffff" showgrid="false" width="157.009px">
	</sodipodi:namedview>
<g id="g46">
	<g id="Layer_1">
		<path id="path49" fill="#809CC9" d="M108,0H0v108h108L108,0L108,0z"/>
		<g id="g51" transform="translate(-21.475021,13.125)">
			<path id="path53" fill="#FFFFFF" d="M130.4,0l1.7,6.6c-15.3,2.2-28.9,4.8-40.8,7.8c-12.9,3.2-23.2,6.5-31,9.9
				c-7.8,3.3-11.5,6-11,8c0.5,1.8,3.7,2.6,9.9,2.5c3.1-0.1,8.3-0.4,15.3-1c7.1-0.6,16.2-1.5,27.4-2.7c20.6-2.1,34.8-3.1,42.5-2.8
				c7.7,0.2,11.9,1.8,12.7,4.7c1,4-6.3,9.3-21.9,16C119.4,55.6,99.2,62,74.4,68.3c-20.9,5.3-38.8,9-53.9,11.3l-1.6-6.5
				c17.9-2.6,33.9-5.6,48.2-9.2c13.3-3.4,23.6-6.6,30.8-9.8c7.2-3.2,10.5-5.8,10-8c-0.5-1.9-3.8-2.8-10-2.9c-3.2,0-7.5,0.3-13.1,0.7
				c-5.6,0.4-12.5,1.1-20.7,1.9c-12.8,1.4-23.5,2.4-31.9,3.1c-8.5,0.7-14.8,1.1-19,1c-8-0.1-12.4-1.6-13.1-4.6
				c-1-4.1,5.7-9.2,20.3-15.4C35,23.6,54.9,17.3,80.1,10.9C97.5,6.5,114.3,2.9,130.4,0z"/>
		</g>
		<g id="g55" transform="translate(-21.475021,13.125)">
			<path id="path57" fill="#FFFFFF" d="M26.1,56.1c0.3,0,0.5,0.1,0.7,0.3c0.2,0.2,0.3,0.5,0.3,0.7c0,0.3-0.1,0.5-0.3,0.8
				c-0.2,0.2-0.5,0.3-0.7,0.3c-0.3,0-0.5-0.1-0.8-0.3c-0.2-0.2-0.3-0.5-0.3-0.8c0-0.3,0.1-0.5,0.3-0.7
				C25.6,56.2,25.8,56.1,26.1,56.1z M26.1,62.9c0.3,0,0.5,0.1,0.7,0.3c0.2,0.2,0.3,0.5,0.3,0.7c0,0.3-0.1,0.5-0.3,0.7
				c-0.2,0.2-0.5,0.3-0.7,0.3c-0.1,0-0.3,0-0.4-0.1c-0.1-0.1-0.2-0.1-0.3-0.2c-0.1-0.1-0.2-0.2-0.2-0.3c-0.1-0.1-0.1-0.3-0.1-0.4
				c0-0.3,0.1-0.5,0.3-0.7C25.6,63,25.8,62.9,26.1,62.9z"/>
			<path id="path59" fill="#FFFFFF" d="M29.8,56.1c0.3,0,0.5,0.1,0.7,0.3c0.2,0.2,0.3,0.5,0.3,0.7c0,0.3-0.1,0.5-0.3,0.8
				c-0.2,0.2-0.5,0.3-0.7,0.3c-0.3,0-0.5-0.1-0.8-0.3c-0.2-0.2-0.3-0.5-0.3-0.8c0-0.3,0.1-0.5,0.3-0.7
				C29.2,56.2,29.5,56.1,29.8,56.1z M29.8,62.9c0.3,0,0.5,0.1,0.7,0.3c0.2,0.2,0.3,0.5,0.3,0.7c0,0.3-0.1,0.5-0.3,0.7
				C30.3,64.9,30,65,29.8,65c-0.1,0-0.3,0-0.4-0.1c-0.1-0.1-0.2-0.1-0.3-0.2s-0.2-0.2-0.2-0.3c-0.1-0.1-0.1-0.3-0.1-0.4
				c0-0.3,0.1-0.5,0.3-0.7C29.2,63,29.5,62.9,29.8,62.9z"/>
		</g>
	</g>
</g>
</svg>
